<svg xmlns="http://www.w3.org/2000/svg" width="15.19" height="14.61" viewBox="0 0 15.19 14.61">
  <g id="email" transform="translate(4010.18 1379.48)">
    <path id="Path_31" data-name="Path 31" d="M60.4,326.4a6.55,6.55,0,0,1,2.66,2.5,6.986,6.986,0,0,1,.95,3.62,5.7,5.7,0,0,1-.82,3.26,2.612,2.612,0,0,1-2.26,1.18,2.282,2.282,0,0,1-1.3-.36,1.883,1.883,0,0,1-.74-1.03,3.26,3.26,0,0,1-2.88,1.39,3.768,3.768,0,0,1-1.97-.52,3.637,3.637,0,0,1-1.38-1.45,4.414,4.414,0,0,1-.5-2.11,4.334,4.334,0,0,1,.5-2.09,3.611,3.611,0,0,1,1.38-1.44,3.768,3.768,0,0,1,1.97-.52,3.972,3.972,0,0,1,1.53.29,3,3,0,0,1,1.14.85v-1.04h1.78v5.44a1.247,1.247,0,0,0,.23.83.764.764,0,0,0,.6.26,1.087,1.087,0,0,0,1-.74,5.262,5.262,0,0,0,.34-2.15,5.673,5.673,0,0,0-.78-2.99,5.359,5.359,0,0,0-2.17-2.02,6.859,6.859,0,0,0-3.2-.72,6.672,6.672,0,0,0-3.23.76,5.427,5.427,0,0,0-2.18,2.12,6.214,6.214,0,0,0-.77,3.09,6.323,6.323,0,0,0,.76,3.12,5.351,5.351,0,0,0,2.15,2.12,6.526,6.526,0,0,0,3.2.76,7.316,7.316,0,0,0,1.59-.18,6.283,6.283,0,0,0,1.51-.53l.43,1.28a6.1,6.1,0,0,1-1.66.56,9.3,9.3,0,0,1-1.88.19,8.106,8.106,0,0,1-3.96-.94,6.708,6.708,0,0,1-2.67-2.61,7.525,7.525,0,0,1-.95-3.78,7.282,7.282,0,0,1,.96-3.74,6.762,6.762,0,0,1,2.7-2.6,8.224,8.224,0,0,1,3.99-.94,8.1,8.1,0,0,1,3.89.9Zm-2.33,8.31a2.538,2.538,0,0,0,.66-1.85,2.449,2.449,0,0,0-.66-1.82,2.275,2.275,0,0,0-1.7-.67,2.305,2.305,0,0,0-1.71.68,2.5,2.5,0,0,0-.66,1.82,2.562,2.562,0,0,0,.66,1.84,2.464,2.464,0,0,0,3.41.01Z" transform="translate(-4059 -1705)" fill="#72b8da"/>
  </g>
</svg>
