<svg xmlns="http://www.w3.org/2000/svg" width="233.16" height="57.52" viewBox="0 0 233.16 57.52">
  <g id="logo" transform="translate(-70.92 -150.07)">
    <g id="Group_4" data-name="Group 4">
      <path id="Path_3" data-name="Path 3" d="M87.13,154.4a12.35,12.35,0,0,1,7.88,2.86,1.924,1.924,0,0,0,2.46-2.96,16.2,16.2,0,1,0-.11,24.99,1.922,1.922,0,1,0-2.44-2.97,12.212,12.212,0,0,1-7.79,2.79,12.35,12.35,0,0,1,0-24.7Z" fill="#fff"/>
      <path id="Path_4" data-name="Path 4" d="M237.98,150.56a16.2,16.2,0,0,0,0,32.4,16,16,0,0,0,10.07-3.53,1.905,1.905,0,0,0,.72-1.5v-9.55a1.92,1.92,0,0,0-1.92-1.92H238.5a1.92,1.92,0,0,0,0,3.84h6.42v6.67a12.174,12.174,0,0,1-6.95,2.15,12.35,12.35,0,1,1,8.39-21.39,1.925,1.925,0,0,0,2.62-2.82,16.15,16.15,0,0,0-11-4.33Z" fill="#72b8da"/>
      <path id="Path_5" data-name="Path 5" d="M121.33,179.11H105.09V152a1.92,1.92,0,1,0-3.84,0v29.04a1.92,1.92,0,0,0,1.92,1.92h18.17a1.92,1.92,0,0,0,0-3.84Z" fill="#fff"/>
      <path id="Path_6" data-name="Path 6" d="M302.15,179.11H285.91V152a1.92,1.92,0,0,0-3.84,0v29.04a1.92,1.92,0,0,0,1.92,1.92h18.17a1.92,1.92,0,1,0,0-3.84Z" fill="#72b8da"/>
      <path id="Path_7" data-name="Path 7" d="M190.58,179.11H174.34V152a1.92,1.92,0,1,0-3.84,0v29.04a1.92,1.92,0,0,0,1.92,1.92h18.17a1.92,1.92,0,1,0,0-3.84Z" fill="#72b8da"/>
      <path id="Path_8" data-name="Path 8" d="M129.49,150.07a1.92,1.92,0,0,0-1.92,1.92v29.04a1.92,1.92,0,0,0,3.84,0V151.99a1.92,1.92,0,0,0-1.92-1.92Z" fill="#fff"/>
      <path id="Path_9" data-name="Path 9" d="M144.19,150.51h-6.28a1.92,1.92,0,0,0-1.92,1.92v28.6a1.92,1.92,0,1,0,3.84,0v-9.18h4.36a10.675,10.675,0,0,0,0-21.35Zm0,17.5h-4.36V154.36h4.36a6.825,6.825,0,0,1,0,13.65Z" fill="#fff"/>
      <path id="Path_10" data-name="Path 10" d="M216.42,150.51h-19.3a1.92,1.92,0,0,0,0,3.84h19.3a1.92,1.92,0,0,0,0-3.84Z" fill="#72b8da"/>
      <path id="Path_11" data-name="Path 11" d="M198.62,168.65h16.07a1.92,1.92,0,1,0,0-3.84H198.62a1.92,1.92,0,0,0,0,3.84Z" fill="#72b8da"/>
      <path id="Path_12" data-name="Path 12" d="M267.35,152.4h0a1.343,1.343,0,0,0-.12-.24c-.02-.04-.04-.07-.06-.11l-.12-.15a.807.807,0,0,0-.12-.14.5.5,0,0,1-.08-.07,1.735,1.735,0,0,0-.21-.17c-.03-.02-.07-.03-.1-.05a1.077,1.077,0,0,0-.24-.12h-.02s-.08-.03-.12-.04a1.8,1.8,0,0,0-.22-.06c-.06-.01-.12-.01-.18-.02s-.13-.02-.2-.02a.68.68,0,0,0-.2.02.554.554,0,0,0-.18.02,1.413,1.413,0,0,0-.22.06.93.93,0,0,0-.13.04h-.02c-.08.04-.15.09-.23.13a1.093,1.093,0,0,1-.11.06c-.07.05-.13.1-.2.16-.03.03-.06.05-.09.08a.754.754,0,0,0-.11.14,1.576,1.576,0,0,0-.12.15,1.091,1.091,0,0,0-.06.11,2.529,2.529,0,0,0-.12.23h0l-11.25,27.93a1.923,1.923,0,0,0,1.06,2.5,1.845,1.845,0,0,0,.72.14,1.922,1.922,0,0,0,1.78-1.21l9.47-23.49,9.47,23.49a1.921,1.921,0,0,0,1.78,1.21,1.845,1.845,0,0,0,.72-.14,1.923,1.923,0,0,0,1.06-2.5l-11.25-27.92Z" fill="#72b8da"/>
      <path id="Path_13" data-name="Path 13" d="M216.42,179.11h-19.3a1.92,1.92,0,0,0,0,3.84h19.3a1.92,1.92,0,0,0,0-3.84Z" fill="#72b8da"/>
    </g>
    <line id="Line_1" data-name="Line 1" x2="232.4" transform="translate(70.93 191.65)" fill="none" stroke="#72b8da" stroke-miterlimit="10" stroke-width="1"/>
    <g id="Group_5" data-name="Group 5">
      <path id="Path_14" data-name="Path 14" d="M70.93,200.11h4.84v1.37H74.02v5.82H72.6v-5.82H70.92v-1.37Z" fill="#72b8da"/>
      <path id="Path_15" data-name="Path 15" d="M83.48,204.64a1.118,1.118,0,0,0,.21.65,1.647,1.647,0,0,0,.54.51,1.432,1.432,0,0,0,.74.19,1.554,1.554,0,0,0,.78-.19,1.473,1.473,0,0,0,.54-.51,1.235,1.235,0,0,0,.2-.65v-4.53h1.4v4.56a2.542,2.542,0,0,1-.39,1.4,2.7,2.7,0,0,1-1.05.96,3.128,3.128,0,0,1-1.47.35,3.087,3.087,0,0,1-1.46-.35,2.7,2.7,0,0,1-1.05-.96,2.542,2.542,0,0,1-.39-1.4v-4.56H83.5v4.53Z" fill="#72b8da"/>
      <path id="Path_16" data-name="Path 16" d="M102.48,203.71a3.584,3.584,0,0,1,.28-1.41,3.88,3.88,0,0,1,.79-1.18,3.714,3.714,0,0,1,1.17-.81,3.646,3.646,0,0,1,2.85,0,3.943,3.943,0,0,1,1.18.81,3.679,3.679,0,0,1,.8,1.18,3.522,3.522,0,0,1,.29,1.41,3.7,3.7,0,0,1-2.27,3.39,3.529,3.529,0,0,1-1.42.28,3.8,3.8,0,0,1-1.43-.28,3.719,3.719,0,0,1-1.17-.79,3.661,3.661,0,0,1-.79-1.17A3.577,3.577,0,0,1,102.48,203.71Zm1.46,0a2.351,2.351,0,0,0,.17.89,2.205,2.205,0,0,0,.48.73,2.055,2.055,0,0,0,.71.49,2.131,2.131,0,0,0,.88.18,1.961,1.961,0,0,0,.85-.18,2.228,2.228,0,0,0,.69-.49,2.315,2.315,0,0,0,.46-.73,2.351,2.351,0,0,0,.17-.89,2.5,2.5,0,0,0-.17-.91,2.278,2.278,0,0,0-.47-.74,2.017,2.017,0,0,0-.7-.49,2.293,2.293,0,0,0-.87-.18,2.118,2.118,0,0,0-.87.18,2.158,2.158,0,0,0-.7.49,2.278,2.278,0,0,0-.47.74,2.456,2.456,0,0,0-.17.91Z" fill="#72b8da"/>
      <path id="Path_17" data-name="Path 17" d="M116.31,200.11h4.49v1.37h-3.08v1.63h2.67v1.37h-2.67v2.82H116.3v-7.19Z" fill="#72b8da"/>
      <path id="Path_18" data-name="Path 18" d="M127.25,200.11h1.42v7.19h-1.42Z" fill="#72b8da"/>
      <path id="Path_19" data-name="Path 19" d="M140.99,206.7a2.456,2.456,0,0,1-.43.26,3.657,3.657,0,0,1-.78.29,4.04,4.04,0,0,1-2.53-.19,3.262,3.262,0,0,1-1.13-.78,3.371,3.371,0,0,1-.71-1.14,3.925,3.925,0,0,1-.24-1.38,4.216,4.216,0,0,1,.25-1.5,3.414,3.414,0,0,1,.71-1.18,3.21,3.21,0,0,1,1.11-.77,3.645,3.645,0,0,1,1.43-.27,3.873,3.873,0,0,1,1.28.19,4.593,4.593,0,0,1,.91.42l-.56,1.34a4.813,4.813,0,0,0-.65-.39,2.12,2.12,0,0,0-.93-.2,1.969,1.969,0,0,0-.79.17,1.933,1.933,0,0,0-.66.48,2.357,2.357,0,0,0-.45.73,2.442,2.442,0,0,0-.17.9,2.911,2.911,0,0,0,.15.95,2.252,2.252,0,0,0,.43.74,2.022,2.022,0,0,0,.68.47,2.278,2.278,0,0,0,.89.17,2.333,2.333,0,0,0,.99-.19,2.071,2.071,0,0,0,.62-.39l.59,1.27Z" fill="#72b8da"/>
      <path id="Path_20" data-name="Path 20" d="M147.48,200.11h1.42v7.19h-1.42Z" fill="#72b8da"/>
      <path id="Path_21" data-name="Path 21" d="M162.26,207.59l-5.45-4.92.42.23.03,4.39h-1.43v-7.47h.06l5.33,4.9-.31-.14-.03-4.48h1.43v7.48h-.04Z" fill="#72b8da"/>
      <path id="Path_22" data-name="Path 22" d="M168.42,207.3l3.24-7.47h.08l3.24,7.47h-1.64l-2.07-5.25,1.02-.7-2.48,5.95h-1.4Zm2.22-2.6h2.16l.5,1.19h-3.1Z" fill="#72b8da"/>
      <path id="Path_23" data-name="Path 23" d="M189.35,200.11h4.9v1.37h-3.49v1.53h3.08v1.37h-3.08v1.55h3.62v1.37h-5.04v-7.19Z" fill="#72b8da"/>
      <path id="Path_24" data-name="Path 24" d="M207.36,207.59l-5.45-4.92.42.23.03,4.39h-1.43v-7.47h.06l5.33,4.9-.31-.14-.03-4.48h1.43v7.48h-.04Z" fill="#72b8da"/>
      <path id="Path_25" data-name="Path 25" d="M222.58,200.11H224v5.82h3.38v1.37h-4.79v-7.19Z" fill="#72b8da"/>
      <path id="Path_26" data-name="Path 26" d="M233.1,207.3l3.24-7.47h.08l3.24,7.47h-1.64l-2.07-5.25,1.02-.7-2.48,5.95h-1.4Zm2.22-2.6h2.16l.5,1.19h-3.1Z" fill="#72b8da"/>
      <path id="Path_27" data-name="Path 27" d="M260.47,207.59l-5.45-4.92.42.23.03,4.39h-1.43v-7.47h.06l5.33,4.9-.31-.14-.03-4.48h1.43v7.48h-.04Z" fill="#72b8da"/>
      <path id="Path_28" data-name="Path 28" d="M268.71,204.64a1.118,1.118,0,0,0,.21.65,1.647,1.647,0,0,0,.54.51,1.432,1.432,0,0,0,.74.19,1.554,1.554,0,0,0,.78-.19,1.473,1.473,0,0,0,.54-.51,1.235,1.235,0,0,0,.2-.65v-4.53h1.4v4.56a2.542,2.542,0,0,1-.39,1.4,2.7,2.7,0,0,1-1.05.96,3.128,3.128,0,0,1-1.47.35,3.087,3.087,0,0,1-1.46-.35,2.7,2.7,0,0,1-1.05-.96,2.543,2.543,0,0,1-.39-1.4v-4.56h1.42v4.53Z" fill="#72b8da"/>
      <path id="Path_29" data-name="Path 29" d="M282.01,200.11a3.164,3.164,0,0,1,1.79.45,1.525,1.525,0,0,1,.66,1.35,1.826,1.826,0,0,1-.33,1.11,1.869,1.869,0,0,1-.89.66,3.4,3.4,0,0,1-1.28.22l-.22-.76a4.812,4.812,0,0,1,1.58.24,2.573,2.573,0,0,1,1.09.7,1.579,1.579,0,0,1,.4,1.09,2.131,2.131,0,0,1-.21.99,1.714,1.714,0,0,1-.57.65,2.284,2.284,0,0,1-.81.36,3.589,3.589,0,0,1-.93.11H279.9v-7.19h2.11Zm.17,2.94a.733.733,0,0,0,.62-.25.927.927,0,0,0,.2-.58.651.651,0,0,0-.25-.56,1.132,1.132,0,0,0-.67-.19h-.76v1.57h.86Zm.05,2.93a2.012,2.012,0,0,0,.57-.08.873.873,0,0,0,.4-.26.679.679,0,0,0,.15-.45.582.582,0,0,0-.18-.47.953.953,0,0,0-.45-.22,2.715,2.715,0,0,0-.58-.06h-.81V206h.91Z" fill="#72b8da"/>
      <path id="Path_30" data-name="Path 30" d="M291.29,200.11h4.9v1.37H292.7v1.53h3.08v1.37H292.7v1.55h3.62v1.37h-5.04v-7.19Z" fill="#72b8da"/>
    </g>
  </g>
</svg>
